<mxfile host="app.diagrams.net" modified="2024-07-08T13:53:49.354Z" agent="Mozilla/5.0 (Windows NT 10.0; Win64; x64) AppleWebKit/537.36 (KHTML, like Gecko) Chrome/126.0.0.0 Safari/537.36" etag="9eGOfCCAYGeXysutnKVD" version="24.6.4" type="device">
  <diagram name="Page-1" id="0783ab3e-0a74-02c8-0abd-f7b4e66b4bec">
    <mxGraphModel dx="1434" dy="738" grid="1" gridSize="10" guides="1" tooltips="1" connect="1" arrows="1" fold="1" page="1" pageScale="1" pageWidth="850" pageHeight="1100" background="none" math="0" shadow="0">
      <root>
        <mxCell id="0" />
        <mxCell id="1" parent="0" />
        <mxCell id="1c1d494c118603dd-1" value="Library System - Editar Usuario" style="swimlane;html=1;childLayout=stackLayout;startSize=20;rounded=0;shadow=0;comic=0;labelBackgroundColor=none;strokeWidth=1;fontFamily=Verdana;fontSize=12;align=center;" parent="1" vertex="1">
          <mxGeometry width="720" height="750" as="geometry" />
        </mxCell>
        <mxCell id="6MT8BEEm58CrdeI0F6Hf-2" style="edgeStyle=orthogonalEdgeStyle;rounded=0;orthogonalLoop=1;jettySize=auto;html=1;exitX=1;exitY=0.5;exitDx=0;exitDy=0;entryX=0;entryY=0.5;entryDx=0;entryDy=0;" parent="1c1d494c118603dd-1" source="60571a20871a0731-8" target="6MT8BEEm58CrdeI0F6Hf-1" edge="1">
          <mxGeometry relative="1" as="geometry" />
        </mxCell>
        <mxCell id="6MT8BEEm58CrdeI0F6Hf-7" style="edgeStyle=orthogonalEdgeStyle;rounded=0;orthogonalLoop=1;jettySize=auto;html=1;exitX=1;exitY=0.5;exitDx=0;exitDy=0;entryX=0;entryY=0.5;entryDx=0;entryDy=0;" parent="1c1d494c118603dd-1" source="6MT8BEEm58CrdeI0F6Hf-3" target="6MT8BEEm58CrdeI0F6Hf-6" edge="1">
          <mxGeometry relative="1" as="geometry" />
        </mxCell>
        <mxCell id="6MT8BEEm58CrdeI0F6Hf-8" style="edgeStyle=orthogonalEdgeStyle;rounded=0;orthogonalLoop=1;jettySize=auto;html=1;exitX=1;exitY=0.5;exitDx=0;exitDy=0;entryX=0;entryY=0.5;entryDx=0;entryDy=0;" parent="1c1d494c118603dd-1" source="6MT8BEEm58CrdeI0F6Hf-1" target="6MT8BEEm58CrdeI0F6Hf-5" edge="1">
          <mxGeometry relative="1" as="geometry" />
        </mxCell>
        <mxCell id="6MT8BEEm58CrdeI0F6Hf-10" style="edgeStyle=orthogonalEdgeStyle;rounded=0;orthogonalLoop=1;jettySize=auto;html=1;exitX=1;exitY=0.5;exitDx=0;exitDy=0;entryX=0.998;entryY=0.503;entryDx=0;entryDy=0;entryPerimeter=0;endArrow=none;endFill=0;" parent="1c1d494c118603dd-1" source="6MT8BEEm58CrdeI0F6Hf-6" target="6MT8BEEm58CrdeI0F6Hf-9" edge="1">
          <mxGeometry relative="1" as="geometry">
            <Array as="points">
              <mxPoint x="680" y="125" />
              <mxPoint x="680" y="171" />
            </Array>
          </mxGeometry>
        </mxCell>
        <mxCell id="6MT8BEEm58CrdeI0F6Hf-11" style="edgeStyle=orthogonalEdgeStyle;rounded=0;orthogonalLoop=1;jettySize=auto;html=1;exitX=1;exitY=0.5;exitDx=0;exitDy=0;entryX=0.998;entryY=0.503;entryDx=0;entryDy=0;entryPerimeter=0;endArrow=none;endFill=0;" parent="1c1d494c118603dd-1" source="6MT8BEEm58CrdeI0F6Hf-5" target="6MT8BEEm58CrdeI0F6Hf-9" edge="1">
          <mxGeometry relative="1" as="geometry">
            <Array as="points">
              <mxPoint x="690" y="85" />
              <mxPoint x="690" y="171" />
            </Array>
          </mxGeometry>
        </mxCell>
        <mxCell id="6MT8BEEm58CrdeI0F6Hf-12" style="edgeStyle=orthogonalEdgeStyle;rounded=0;orthogonalLoop=1;jettySize=auto;html=1;exitX=0.5;exitY=1;exitDx=0;exitDy=0;entryX=0.002;entryY=0.503;entryDx=0;entryDy=0;entryPerimeter=0;startArrow=classic;startFill=1;endArrow=none;endFill=0;" parent="1c1d494c118603dd-1" source="60571a20871a0731-8" target="6MT8BEEm58CrdeI0F6Hf-9" edge="1">
          <mxGeometry relative="1" as="geometry" />
        </mxCell>
        <mxCell id="6MT8BEEm58CrdeI0F6Hf-17" style="edgeStyle=orthogonalEdgeStyle;rounded=0;orthogonalLoop=1;jettySize=auto;html=1;exitX=0;exitY=0.5;exitDx=0;exitDy=0;entryX=1;entryY=0.5;entryDx=0;entryDy=0;" parent="1c1d494c118603dd-1" source="6MT8BEEm58CrdeI0F6Hf-14" target="6MT8BEEm58CrdeI0F6Hf-18" edge="1">
          <mxGeometry relative="1" as="geometry">
            <mxPoint x="190" y="205" as="targetPoint" />
          </mxGeometry>
        </mxCell>
        <mxCell id="1c1d494c118603dd-2" value="Usuario" style="swimlane;html=1;startSize=20;" parent="1c1d494c118603dd-1" vertex="1">
          <mxGeometry y="20" width="240" height="730" as="geometry" />
        </mxCell>
        <mxCell id="60571a20871a0731-4" value="" style="ellipse;whiteSpace=wrap;html=1;rounded=0;shadow=0;comic=0;labelBackgroundColor=none;strokeWidth=1;fillColor=#000000;fontFamily=Verdana;fontSize=12;align=center;" parent="1c1d494c118603dd-2" vertex="1">
          <mxGeometry x="20" y="40" width="50" height="50" as="geometry" />
        </mxCell>
        <mxCell id="60571a20871a0731-8" value="Login" style="rounded=1;whiteSpace=wrap;html=1;shadow=0;comic=0;labelBackgroundColor=none;strokeWidth=1;fontFamily=Verdana;fontSize=12;align=center;arcSize=50;" parent="1c1d494c118603dd-2" vertex="1">
          <mxGeometry x="110" y="50" width="100" height="30" as="geometry" />
        </mxCell>
        <mxCell id="1c1d494c118603dd-27" style="edgeStyle=orthogonalEdgeStyle;rounded=0;html=1;labelBackgroundColor=none;startArrow=none;startFill=0;startSize=5;endArrow=classicThin;endFill=1;endSize=5;jettySize=auto;orthogonalLoop=1;strokeWidth=1;fontFamily=Verdana;fontSize=12;entryX=0;entryY=0.5;entryDx=0;entryDy=0;" parent="1c1d494c118603dd-2" source="60571a20871a0731-4" target="60571a20871a0731-8" edge="1">
          <mxGeometry relative="1" as="geometry" />
        </mxCell>
        <mxCell id="6MT8BEEm58CrdeI0F6Hf-18" value="Listagem de Usuarios" style="rounded=1;whiteSpace=wrap;html=1;shadow=0;comic=0;labelBackgroundColor=none;strokeWidth=1;fontFamily=Verdana;fontSize=12;align=center;arcSize=50;" parent="1c1d494c118603dd-2" vertex="1">
          <mxGeometry x="45" y="170" width="150" height="30" as="geometry" />
        </mxCell>
        <mxCell id="JtFaLPs-1PDjHstrPCpa-27" style="edgeStyle=orthogonalEdgeStyle;rounded=0;orthogonalLoop=1;jettySize=auto;html=1;exitX=0.5;exitY=1;exitDx=0;exitDy=0;entryX=0.5;entryY=0;entryDx=0;entryDy=0;" edge="1" parent="1c1d494c118603dd-2" source="JtFaLPs-1PDjHstrPCpa-24" target="JtFaLPs-1PDjHstrPCpa-26">
          <mxGeometry relative="1" as="geometry" />
        </mxCell>
        <mxCell id="JtFaLPs-1PDjHstrPCpa-24" value="Selecionar Usuário" style="rounded=1;whiteSpace=wrap;html=1;shadow=0;comic=0;labelBackgroundColor=none;strokeWidth=1;fontFamily=Verdana;fontSize=12;align=center;arcSize=50;" vertex="1" parent="1c1d494c118603dd-2">
          <mxGeometry x="55" y="245" width="130" height="30" as="geometry" />
        </mxCell>
        <mxCell id="JtFaLPs-1PDjHstrPCpa-26" value="Clicar em Editar" style="rounded=1;whiteSpace=wrap;html=1;shadow=0;comic=0;labelBackgroundColor=none;strokeWidth=1;fontFamily=Verdana;fontSize=12;align=center;arcSize=50;" vertex="1" parent="1c1d494c118603dd-2">
          <mxGeometry x="55" y="300" width="130" height="30" as="geometry" />
        </mxCell>
        <mxCell id="JtFaLPs-1PDjHstrPCpa-30" value="Preencher os dados com as novas informações" style="rounded=1;whiteSpace=wrap;html=1;shadow=0;comic=0;labelBackgroundColor=none;strokeWidth=1;fontFamily=Verdana;fontSize=12;align=center;arcSize=50;" vertex="1" parent="1c1d494c118603dd-2">
          <mxGeometry x="40" y="360" width="160" height="40" as="geometry" />
        </mxCell>
        <mxCell id="JtFaLPs-1PDjHstrPCpa-40" value="" style="edgeStyle=orthogonalEdgeStyle;rounded=0;orthogonalLoop=1;jettySize=auto;html=1;exitX=0.499;exitY=0.978;exitDx=0;exitDy=0;exitPerimeter=0;entryX=0.278;entryY=0.003;entryDx=0;entryDy=0;entryPerimeter=0;" edge="1" parent="1c1d494c118603dd-2" source="JtFaLPs-1PDjHstrPCpa-31" target="JtFaLPs-1PDjHstrPCpa-32">
          <mxGeometry relative="1" as="geometry">
            <Array as="points">
              <mxPoint x="80" y="500" />
            </Array>
          </mxGeometry>
        </mxCell>
        <mxCell id="JtFaLPs-1PDjHstrPCpa-31" value="Nova senha?" style="html=1;whiteSpace=wrap;aspect=fixed;shape=isoRectangle;fillColor=default;" vertex="1" parent="1c1d494c118603dd-2">
          <mxGeometry x="30" y="420" width="100" height="60" as="geometry" />
        </mxCell>
        <mxCell id="JtFaLPs-1PDjHstrPCpa-32" value="Preencher os dois campos com a mesma senha" style="rounded=1;whiteSpace=wrap;html=1;shadow=0;comic=0;labelBackgroundColor=none;strokeWidth=1;fontFamily=Verdana;fontSize=12;align=center;arcSize=50;" vertex="1" parent="1c1d494c118603dd-2">
          <mxGeometry x="30" y="500" width="180" height="40" as="geometry" />
        </mxCell>
        <mxCell id="JtFaLPs-1PDjHstrPCpa-38" value="Não" style="text;html=1;align=center;verticalAlign=middle;whiteSpace=wrap;rounded=0;" vertex="1" parent="1c1d494c118603dd-2">
          <mxGeometry x="133" y="438" width="31" height="10" as="geometry" />
        </mxCell>
        <mxCell id="JtFaLPs-1PDjHstrPCpa-39" value="Sim" style="text;html=1;align=center;verticalAlign=middle;whiteSpace=wrap;rounded=0;" vertex="1" parent="1c1d494c118603dd-2">
          <mxGeometry x="164" y="480" width="31" height="10" as="geometry" />
        </mxCell>
        <mxCell id="JtFaLPs-1PDjHstrPCpa-45" style="edgeStyle=orthogonalEdgeStyle;rounded=0;orthogonalLoop=1;jettySize=auto;html=1;exitX=0.25;exitY=1;exitDx=0;exitDy=0;entryX=0.502;entryY=0.024;entryDx=0;entryDy=0;entryPerimeter=0;" edge="1" parent="1c1d494c118603dd-2" source="JtFaLPs-1PDjHstrPCpa-30" target="JtFaLPs-1PDjHstrPCpa-31">
          <mxGeometry relative="1" as="geometry" />
        </mxCell>
        <mxCell id="JtFaLPs-1PDjHstrPCpa-55" value="Campo senha e confirmação de senha" style="shape=note;whiteSpace=wrap;html=1;rounded=0;shadow=0;comic=0;labelBackgroundColor=none;strokeWidth=1;fontFamily=Verdana;fontSize=12;align=center;size=20;" vertex="1" parent="1c1d494c118603dd-2">
          <mxGeometry x="78.5" y="570" width="140" height="60" as="geometry" />
        </mxCell>
        <mxCell id="JtFaLPs-1PDjHstrPCpa-56" style="rounded=0;orthogonalLoop=1;jettySize=auto;html=1;exitX=0.5;exitY=1;exitDx=0;exitDy=0;entryX=0.5;entryY=0;entryDx=0;entryDy=0;entryPerimeter=0;dashed=1;endArrow=none;endFill=0;" edge="1" parent="1c1d494c118603dd-2" source="JtFaLPs-1PDjHstrPCpa-32" target="JtFaLPs-1PDjHstrPCpa-55">
          <mxGeometry relative="1" as="geometry" />
        </mxCell>
        <mxCell id="1c1d494c118603dd-3" value="Sistema" style="swimlane;html=1;startSize=20;" parent="1c1d494c118603dd-1" vertex="1">
          <mxGeometry x="240" y="20" width="240" height="730" as="geometry" />
        </mxCell>
        <mxCell id="6MT8BEEm58CrdeI0F6Hf-4" style="edgeStyle=orthogonalEdgeStyle;rounded=0;orthogonalLoop=1;jettySize=auto;html=1;exitX=0.25;exitY=1;exitDx=0;exitDy=0;entryX=0;entryY=0.5;entryDx=0;entryDy=0;" parent="1c1d494c118603dd-3" source="6MT8BEEm58CrdeI0F6Hf-1" target="6MT8BEEm58CrdeI0F6Hf-3" edge="1">
          <mxGeometry relative="1" as="geometry">
            <Array as="points">
              <mxPoint x="74" y="105" />
            </Array>
          </mxGeometry>
        </mxCell>
        <mxCell id="6MT8BEEm58CrdeI0F6Hf-1" value="Conferir credencial" style="rounded=1;whiteSpace=wrap;html=1;shadow=0;comic=0;labelBackgroundColor=none;strokeWidth=1;fontFamily=Verdana;fontSize=12;align=center;arcSize=50;" parent="1c1d494c118603dd-3" vertex="1">
          <mxGeometry x="42.5" y="50" width="155" height="30" as="geometry" />
        </mxCell>
        <mxCell id="6MT8BEEm58CrdeI0F6Hf-3" value="Criptografia" style="rounded=1;whiteSpace=wrap;html=1;shadow=0;comic=0;labelBackgroundColor=none;strokeWidth=1;fontFamily=Verdana;fontSize=12;align=center;arcSize=50;" parent="1c1d494c118603dd-3" vertex="1">
          <mxGeometry x="100" y="90" width="115" height="30" as="geometry" />
        </mxCell>
        <mxCell id="6MT8BEEm58CrdeI0F6Hf-9" value="" style="html=1;whiteSpace=wrap;aspect=fixed;shape=isoRectangle;" parent="1c1d494c118603dd-3" vertex="1">
          <mxGeometry x="102.5" y="140" width="35" height="21" as="geometry" />
        </mxCell>
        <mxCell id="6MT8BEEm58CrdeI0F6Hf-13" value="Não" style="text;html=1;align=center;verticalAlign=middle;whiteSpace=wrap;rounded=0;" parent="1c1d494c118603dd-3" vertex="1">
          <mxGeometry x="69" y="140" width="36" height="10" as="geometry" />
        </mxCell>
        <mxCell id="6MT8BEEm58CrdeI0F6Hf-14" value="Menu" style="rounded=1;whiteSpace=wrap;html=1;shadow=0;comic=0;labelBackgroundColor=none;strokeWidth=1;fontFamily=Verdana;fontSize=12;align=center;arcSize=50;" parent="1c1d494c118603dd-3" vertex="1">
          <mxGeometry x="35" y="170" width="70" height="30" as="geometry" />
        </mxCell>
        <mxCell id="6MT8BEEm58CrdeI0F6Hf-15" style="edgeStyle=orthogonalEdgeStyle;rounded=0;orthogonalLoop=1;jettySize=auto;html=1;exitX=1;exitY=0.5;exitDx=0;exitDy=0;entryX=0.504;entryY=0.984;entryDx=0;entryDy=0;entryPerimeter=0;startArrow=classic;startFill=1;endArrow=none;endFill=0;" parent="1c1d494c118603dd-3" source="6MT8BEEm58CrdeI0F6Hf-14" target="6MT8BEEm58CrdeI0F6Hf-9" edge="1">
          <mxGeometry relative="1" as="geometry" />
        </mxCell>
        <mxCell id="6MT8BEEm58CrdeI0F6Hf-16" value="Sim" style="text;html=1;align=center;verticalAlign=middle;whiteSpace=wrap;rounded=0;" parent="1c1d494c118603dd-3" vertex="1">
          <mxGeometry x="125" y="170" width="31" height="10" as="geometry" />
        </mxCell>
        <mxCell id="6MT8BEEm58CrdeI0F6Hf-19" value="Corresponde?" style="text;html=1;align=center;verticalAlign=middle;whiteSpace=wrap;rounded=0;" parent="1c1d494c118603dd-3" vertex="1">
          <mxGeometry x="140" y="140" width="90.5" height="10" as="geometry" />
        </mxCell>
        <mxCell id="JtFaLPs-1PDjHstrPCpa-23" value="Retornar dados" style="rounded=1;whiteSpace=wrap;html=1;shadow=0;comic=0;labelBackgroundColor=none;strokeWidth=1;fontFamily=Verdana;fontSize=12;align=center;arcSize=50;" vertex="1" parent="1c1d494c118603dd-3">
          <mxGeometry x="62.5" y="245" width="115" height="30" as="geometry" />
        </mxCell>
        <mxCell id="JtFaLPs-1PDjHstrPCpa-52" style="edgeStyle=orthogonalEdgeStyle;rounded=0;orthogonalLoop=1;jettySize=auto;html=1;exitX=0.5;exitY=1;exitDx=0;exitDy=0;entryX=0.5;entryY=0;entryDx=0;entryDy=0;" edge="1" parent="1c1d494c118603dd-3" source="JtFaLPs-1PDjHstrPCpa-28" target="JtFaLPs-1PDjHstrPCpa-29">
          <mxGeometry relative="1" as="geometry" />
        </mxCell>
        <mxCell id="JtFaLPs-1PDjHstrPCpa-28" value="Abrir Cadastrar Usuário" style="rounded=1;whiteSpace=wrap;html=1;shadow=0;comic=0;labelBackgroundColor=none;strokeWidth=1;fontFamily=Verdana;fontSize=12;align=center;arcSize=50;" vertex="1" parent="1c1d494c118603dd-3">
          <mxGeometry x="35" y="300" width="170" height="30" as="geometry" />
        </mxCell>
        <mxCell id="JtFaLPs-1PDjHstrPCpa-29" value="Preencher os dados já cadastrados" style="rounded=1;whiteSpace=wrap;html=1;shadow=0;comic=0;labelBackgroundColor=none;strokeWidth=1;fontFamily=Verdana;fontSize=12;align=center;arcSize=50;" vertex="1" parent="1c1d494c118603dd-3">
          <mxGeometry x="40" y="360" width="160" height="40" as="geometry" />
        </mxCell>
        <mxCell id="JtFaLPs-1PDjHstrPCpa-34" value="" style="html=1;whiteSpace=wrap;aspect=fixed;shape=isoRectangle;" vertex="1" parent="1c1d494c118603dd-3">
          <mxGeometry x="110" y="509" width="35" height="21" as="geometry" />
        </mxCell>
        <mxCell id="JtFaLPs-1PDjHstrPCpa-35" value="Corresponde?" style="text;html=1;align=center;verticalAlign=middle;whiteSpace=wrap;rounded=0;" vertex="1" parent="1c1d494c118603dd-3">
          <mxGeometry x="9" y="507" width="90.5" height="10" as="geometry" />
        </mxCell>
        <mxCell id="JtFaLPs-1PDjHstrPCpa-36" value="Sim" style="text;html=1;align=center;verticalAlign=middle;whiteSpace=wrap;rounded=0;" vertex="1" parent="1c1d494c118603dd-3">
          <mxGeometry x="156" y="507" width="31" height="10" as="geometry" />
        </mxCell>
        <mxCell id="JtFaLPs-1PDjHstrPCpa-37" value="Não" style="text;html=1;align=center;verticalAlign=middle;whiteSpace=wrap;rounded=0;" vertex="1" parent="1c1d494c118603dd-3">
          <mxGeometry x="68.5" y="488" width="31" height="10" as="geometry" />
        </mxCell>
        <mxCell id="JtFaLPs-1PDjHstrPCpa-41" value="Deixar campo senha em branco" style="rounded=1;whiteSpace=wrap;html=1;shadow=0;comic=0;labelBackgroundColor=none;strokeWidth=1;fontFamily=Verdana;fontSize=12;align=center;arcSize=50;" vertex="1" parent="1c1d494c118603dd-3">
          <mxGeometry x="50" y="430" width="140" height="40" as="geometry" />
        </mxCell>
        <mxCell id="JtFaLPs-1PDjHstrPCpa-22" style="edgeStyle=orthogonalEdgeStyle;rounded=0;orthogonalLoop=1;jettySize=auto;html=1;exitX=0.5;exitY=1;exitDx=0;exitDy=0;entryX=1;entryY=0.5;entryDx=0;entryDy=0;" edge="1" parent="1c1d494c118603dd-1" source="JtFaLPs-1PDjHstrPCpa-20" target="JtFaLPs-1PDjHstrPCpa-23">
          <mxGeometry relative="1" as="geometry">
            <mxPoint x="460" y="280" as="targetPoint" />
            <Array as="points">
              <mxPoint x="608" y="280" />
            </Array>
          </mxGeometry>
        </mxCell>
        <mxCell id="JtFaLPs-1PDjHstrPCpa-25" style="edgeStyle=orthogonalEdgeStyle;rounded=0;orthogonalLoop=1;jettySize=auto;html=1;exitX=0;exitY=0.5;exitDx=0;exitDy=0;entryX=1;entryY=0.5;entryDx=0;entryDy=0;" edge="1" parent="1c1d494c118603dd-1" source="JtFaLPs-1PDjHstrPCpa-23" target="JtFaLPs-1PDjHstrPCpa-24">
          <mxGeometry relative="1" as="geometry" />
        </mxCell>
        <mxCell id="JtFaLPs-1PDjHstrPCpa-21" style="edgeStyle=orthogonalEdgeStyle;rounded=0;orthogonalLoop=1;jettySize=auto;html=1;exitX=0.5;exitY=1;exitDx=0;exitDy=0;entryX=0;entryY=0.5;entryDx=0;entryDy=0;" edge="1" parent="1c1d494c118603dd-1" source="6MT8BEEm58CrdeI0F6Hf-18" target="JtFaLPs-1PDjHstrPCpa-20">
          <mxGeometry relative="1" as="geometry">
            <mxPoint x="520" y="240" as="targetPoint" />
            <mxPoint x="114.99000000000001" y="220" as="sourcePoint" />
            <Array as="points">
              <mxPoint x="120" y="240" />
            </Array>
          </mxGeometry>
        </mxCell>
        <mxCell id="JtFaLPs-1PDjHstrPCpa-42" style="edgeStyle=orthogonalEdgeStyle;rounded=0;orthogonalLoop=1;jettySize=auto;html=1;exitX=1;exitY=0.5;exitDx=0;exitDy=0;entryX=0.003;entryY=0.501;entryDx=0;entryDy=0;entryPerimeter=0;" edge="1" parent="1c1d494c118603dd-1" source="JtFaLPs-1PDjHstrPCpa-32" target="JtFaLPs-1PDjHstrPCpa-34">
          <mxGeometry relative="1" as="geometry">
            <Array as="points">
              <mxPoint x="330" y="539" />
            </Array>
          </mxGeometry>
        </mxCell>
        <mxCell id="JtFaLPs-1PDjHstrPCpa-43" value="" style="edgeStyle=orthogonalEdgeStyle;rounded=0;orthogonalLoop=1;jettySize=auto;html=1;entryX=0.75;entryY=1;entryDx=0;entryDy=0;jumpStyle=arc;exitX=0.5;exitY=0.015;exitDx=0;exitDy=0;exitPerimeter=0;" edge="1" parent="1c1d494c118603dd-1" source="JtFaLPs-1PDjHstrPCpa-34" target="JtFaLPs-1PDjHstrPCpa-30">
          <mxGeometry relative="1" as="geometry">
            <Array as="points">
              <mxPoint x="368" y="520" />
              <mxPoint x="265" y="520" />
              <mxPoint x="265" y="440" />
              <mxPoint x="160" y="440" />
            </Array>
          </mxGeometry>
        </mxCell>
        <mxCell id="JtFaLPs-1PDjHstrPCpa-44" value="" style="edgeStyle=orthogonalEdgeStyle;rounded=0;orthogonalLoop=1;jettySize=auto;html=1;entryX=0;entryY=0.5;entryDx=0;entryDy=0;jumpStyle=arc;" edge="1" parent="1c1d494c118603dd-1" source="JtFaLPs-1PDjHstrPCpa-31" target="JtFaLPs-1PDjHstrPCpa-41">
          <mxGeometry relative="1" as="geometry" />
        </mxCell>
        <mxCell id="JtFaLPs-1PDjHstrPCpa-46" style="edgeStyle=orthogonalEdgeStyle;rounded=0;orthogonalLoop=1;jettySize=auto;html=1;entryX=0.25;entryY=0;entryDx=0;entryDy=0;exitX=1;exitY=0.501;exitDx=0;exitDy=0;exitPerimeter=0;" edge="1" parent="1c1d494c118603dd-1" source="JtFaLPs-1PDjHstrPCpa-34" target="1c1d494c118603dd-12">
          <mxGeometry relative="1" as="geometry">
            <mxPoint x="365" y="540" as="sourcePoint" />
            <Array as="points">
              <mxPoint x="563" y="540" />
            </Array>
          </mxGeometry>
        </mxCell>
        <mxCell id="JtFaLPs-1PDjHstrPCpa-47" style="edgeStyle=orthogonalEdgeStyle;rounded=0;orthogonalLoop=1;jettySize=auto;html=1;exitX=1;exitY=0.5;exitDx=0;exitDy=0;entryX=0.75;entryY=0;entryDx=0;entryDy=0;" edge="1" parent="1c1d494c118603dd-1" source="JtFaLPs-1PDjHstrPCpa-41" target="1c1d494c118603dd-12">
          <mxGeometry relative="1" as="geometry" />
        </mxCell>
        <mxCell id="JtFaLPs-1PDjHstrPCpa-51" style="edgeStyle=orthogonalEdgeStyle;rounded=0;orthogonalLoop=1;jettySize=auto;html=1;exitX=1;exitY=0.5;exitDx=0;exitDy=0;entryX=0;entryY=0.5;entryDx=0;entryDy=0;" edge="1" parent="1c1d494c118603dd-1" source="JtFaLPs-1PDjHstrPCpa-26" target="JtFaLPs-1PDjHstrPCpa-28">
          <mxGeometry relative="1" as="geometry" />
        </mxCell>
        <mxCell id="JtFaLPs-1PDjHstrPCpa-53" style="edgeStyle=orthogonalEdgeStyle;rounded=0;orthogonalLoop=1;jettySize=auto;html=1;exitX=0;exitY=0.5;exitDx=0;exitDy=0;entryX=1;entryY=0.5;entryDx=0;entryDy=0;" edge="1" parent="1c1d494c118603dd-1" source="JtFaLPs-1PDjHstrPCpa-29" target="JtFaLPs-1PDjHstrPCpa-30">
          <mxGeometry relative="1" as="geometry" />
        </mxCell>
        <mxCell id="1c1d494c118603dd-4" value="Base de dados" style="swimlane;html=1;startSize=20;" parent="1c1d494c118603dd-1" vertex="1">
          <mxGeometry x="480" y="20" width="240" height="730" as="geometry">
            <mxRectangle x="500" y="20" width="40" height="970" as="alternateBounds" />
          </mxGeometry>
        </mxCell>
        <mxCell id="60571a20871a0731-5" value="" style="shape=mxgraph.bpmn.shape;html=1;verticalLabelPosition=bottom;labelBackgroundColor=#ffffff;verticalAlign=top;perimeter=ellipsePerimeter;outline=end;symbol=terminate;rounded=0;shadow=0;comic=0;strokeWidth=1;fontFamily=Verdana;fontSize=12;align=center;" parent="1c1d494c118603dd-4" vertex="1">
          <mxGeometry x="95" y="650" width="50" height="50" as="geometry" />
        </mxCell>
        <mxCell id="6MT8BEEm58CrdeI0F6Hf-5" value="Usuario" style="rounded=1;whiteSpace=wrap;html=1;shadow=0;comic=0;labelBackgroundColor=none;strokeWidth=1;fontFamily=Verdana;fontSize=12;align=center;arcSize=50;" parent="1c1d494c118603dd-4" vertex="1">
          <mxGeometry x="62.5" y="50" width="115" height="30" as="geometry" />
        </mxCell>
        <mxCell id="6MT8BEEm58CrdeI0F6Hf-6" value="Senha" style="rounded=1;whiteSpace=wrap;html=1;shadow=0;comic=0;labelBackgroundColor=none;strokeWidth=1;fontFamily=Verdana;fontSize=12;align=center;arcSize=50;" parent="1c1d494c118603dd-4" vertex="1">
          <mxGeometry x="62.5" y="90" width="115" height="30" as="geometry" />
        </mxCell>
        <mxCell id="JtFaLPs-1PDjHstrPCpa-20" value="Acessar a listagem de Usuários" style="rounded=1;whiteSpace=wrap;html=1;shadow=0;comic=0;labelBackgroundColor=none;strokeWidth=1;fontFamily=Verdana;fontSize=12;align=center;arcSize=50;" vertex="1" parent="1c1d494c118603dd-4">
          <mxGeometry x="62.5" y="200" width="130" height="40" as="geometry" />
        </mxCell>
        <mxCell id="JtFaLPs-1PDjHstrPCpa-49" value="" style="edgeStyle=orthogonalEdgeStyle;rounded=0;orthogonalLoop=1;jettySize=auto;html=1;" edge="1" parent="1c1d494c118603dd-4" source="1c1d494c118603dd-12" target="JtFaLPs-1PDjHstrPCpa-48">
          <mxGeometry relative="1" as="geometry" />
        </mxCell>
        <mxCell id="1c1d494c118603dd-12" value="" style="whiteSpace=wrap;html=1;rounded=0;shadow=0;comic=0;labelBackgroundColor=none;strokeWidth=1;fillColor=#000000;fontFamily=Verdana;fontSize=12;align=center;rotation=0;" parent="1c1d494c118603dd-4" vertex="1">
          <mxGeometry x="46.5" y="540" width="147" height="10" as="geometry" />
        </mxCell>
        <mxCell id="JtFaLPs-1PDjHstrPCpa-50" value="" style="edgeStyle=orthogonalEdgeStyle;rounded=0;orthogonalLoop=1;jettySize=auto;html=1;" edge="1" parent="1c1d494c118603dd-4" source="JtFaLPs-1PDjHstrPCpa-48" target="60571a20871a0731-5">
          <mxGeometry relative="1" as="geometry" />
        </mxCell>
        <mxCell id="JtFaLPs-1PDjHstrPCpa-48" value="Salvar as informações sobre as antigas" style="rounded=1;whiteSpace=wrap;html=1;shadow=0;comic=0;labelBackgroundColor=none;strokeWidth=1;fontFamily=Verdana;fontSize=12;align=center;arcSize=50;" vertex="1" parent="1c1d494c118603dd-4">
          <mxGeometry x="41.25" y="580" width="157.5" height="40" as="geometry" />
        </mxCell>
        <mxCell id="1c1d494c118603dd-26" value="Mantém a senha que já existe" style="shape=note;whiteSpace=wrap;html=1;rounded=0;shadow=0;comic=0;labelBackgroundColor=none;strokeWidth=1;fontFamily=Verdana;fontSize=12;align=center;size=20;" parent="1c1d494c118603dd-4" vertex="1">
          <mxGeometry x="25" y="330" width="120" height="70" as="geometry" />
        </mxCell>
        <mxCell id="JtFaLPs-1PDjHstrPCpa-54" style="rounded=0;orthogonalLoop=1;jettySize=auto;html=1;exitX=0.975;exitY=0.207;exitDx=0;exitDy=0;entryX=0;entryY=1;entryDx=0;entryDy=0;entryPerimeter=0;exitPerimeter=0;dashed=1;endArrow=none;endFill=0;" edge="1" parent="1c1d494c118603dd-1" source="JtFaLPs-1PDjHstrPCpa-41" target="1c1d494c118603dd-26">
          <mxGeometry relative="1" as="geometry">
            <mxPoint x="500" y="410" as="targetPoint" />
          </mxGeometry>
        </mxCell>
      </root>
    </mxGraphModel>
  </diagram>
</mxfile>
